<svg aria-hidden="true" style="position: absolute; width: 0; height: 0; overflow: hidden;" version="1.1" xmlns="http://www.w3.org/2000/svg" xmlns:xlink="http://www.w3.org/1999/xlink">
<defs>
<symbol id="menu-dots-vertical" viewBox="0 0 32 32">
<path d="M18.667 2.667c0 1.473-1.194 2.667-2.667 2.667s-2.667-1.194-2.667-2.667c0-1.473 1.194-2.667 2.667-2.667s2.667 1.194 2.667 2.667z"></path>
<path d="M18.667 16c0 1.473-1.194 2.667-2.667 2.667s-2.667-1.194-2.667-2.667c0-1.473 1.194-2.667 2.667-2.667s2.667 1.194 2.667 2.667z"></path>
<path d="M18.667 29.333c0 1.473-1.194 2.667-2.667 2.667s-2.667-1.194-2.667-2.667c0-1.473 1.194-2.667 2.667-2.667s2.667 1.194 2.667 2.667z"></path>
</symbol>
<symbol id="burger" viewBox="0 0 32 32">
<path d="M30 14h-28c-1.105 0-2 0.895-2 2s0.895 2 2 2h28c1.105 0 2-0.895 2-2s-0.895-2-2-2z"></path>
<path d="M2 8.667h28c1.105 0 2-0.895 2-2s-0.895-2-2-2h-28c-1.105 0-2 0.895-2 2s0.895 2 2 2z"></path>
<path d="M30 23.333h-28c-1.105 0-2 0.895-2 2s0.895 2 2 2h28c1.105 0 2-0.895 2-2s-0.895-2-2-2z"></path>
</symbol>
<symbol id="icon-customers" viewBox="0 0 40 32">
<path d="M22 8c0 4.419-3.581 8-8 8s-8-3.581-8-8 3.581-8 8-8 8 3.581 8 8zM0 30.144c0-6.156 4.987-11.144 11.144-11.144h5.713c6.156 0 11.144 4.988 11.144 11.144 0 1.025-0.831 1.856-1.856 1.856h-24.288c-1.025 0-1.856-0.831-1.856-1.856zM38.081 32h-8.619c0.337-0.587 0.538-1.269 0.538-2v-0.5c0-3.794-1.694-7.2-4.363-9.488 0.15-0.006 0.294-0.012 0.444-0.012h3.837c5.569 0 10.081 4.512 10.081 10.081 0 1.063-0.862 1.919-1.919 1.919zM27 16c-1.938 0-3.688-0.787-4.956-2.056 1.231-1.662 1.956-3.719 1.956-5.944 0-1.675-0.413-3.256-1.144-4.644 1.163-0.85 2.594-1.356 4.144-1.356 3.869 0 7 3.131 7 7s-3.131 7-7 7z"></path>
</symbol>
<symbol id="icon-dashboard" viewBox="0 0 32 32">
<path d="M0.95 2.919c-0.269 0.131-0.494 0.406-0.575 0.7-0.044 0.163-0.056 2.856-0.050 8.106l0.019 7.869h31.313v-8c0-8.956 0.038-8.206-0.45-8.575l-0.225-0.175-14.912-0.013c-13.631-0.013-14.931-0.006-15.119 0.087zM12.5 6.094v1.906h-10.75v-3.813h10.75v1.906zM22.313 5.656v0.531h3.375v1.75h3.313v2.688h0.331c0.181 0 0.363 0.031 0.406 0.075 0.094 0.094 0.094 0.381 0 0.475-0.056 0.056-1.788 0.075-7.406 0.075h-7.331l-0.088-0.144c-0.056-0.075-0.081-0.2-0.056-0.281 0.037-0.144 0.144-0.188 0.55-0.213l0.25-0.019 0.019-1.238 0.012-1.231h3.313v-3h3.313v0.531zM5.588 10.331c0.15 0.106 0.15 0.419 0 0.525-0.088 0.063-0.475 0.081-1.694 0.081-1.5 0-1.587-0.006-1.706-0.125-0.069-0.069-0.125-0.169-0.125-0.219s0.056-0.15 0.125-0.219c0.119-0.119 0.206-0.125 1.706-0.125 1.219 0 1.606 0.019 1.694 0.081zM12.063 10.375c0.069 0.069 0.125 0.169 0.125 0.219s-0.056 0.15-0.125 0.219c-0.119 0.119-0.206 0.125-2.875 0.125s-2.756-0.006-2.875-0.125c-0.069-0.069-0.125-0.169-0.125-0.219s0.056-0.15 0.125-0.219c0.119-0.119 0.206-0.125 2.875-0.125s2.756 0.006 2.875 0.125zM9.469 11.963c0.125 0.188 0.037 0.444-0.169 0.494-0.238 0.069-6.838 0.050-7.006-0.012-0.206-0.081-0.269-0.287-0.144-0.475l0.1-0.156h7.125l0.094 0.15zM12.094 11.963c0.125 0.188 0.037 0.444-0.169 0.494-0.225 0.063-1.463 0.050-1.631-0.012-0.206-0.081-0.269-0.287-0.144-0.475 0.1-0.156 0.119-0.156 0.975-0.156 0.85 0 0.875 0.006 0.969 0.15zM27.331 12.481c0.056 0.069 0.231 0.806 0.45 1.894 0.194 0.981 0.369 1.844 0.387 1.919 0.031 0.131 0.069 0.144 0.494 0.144s0.469 0.012 0.563 0.156c0.169 0.256 0.044 0.45-0.313 0.5-0.387 0.063-1.144 0.012-1.231-0.075-0.044-0.044-0.206-0.731-0.369-1.531l-0.294-1.456-0.481 1.5c-0.262 0.825-0.556 1.738-0.65 2.025-0.125 0.387-0.206 0.538-0.306 0.587-0.3 0.131-0.394 0.006-0.919-1.231-0.269-0.637-0.512-1.162-0.531-1.162s-0.144 0.275-0.281 0.619c-0.181 0.462-0.275 0.631-0.394 0.688-0.181 0.081-1.387 0.094-1.606 0.006-0.094-0.031-0.244-0.212-0.394-0.469-0.125-0.225-0.25-0.406-0.269-0.406s-0.344 0.438-0.719 0.969c-0.694 0.975-0.837 1.106-1.075 0.981-0.081-0.044-0.306-0.644-0.769-2.038-0.356-1.088-0.669-1.975-0.688-1.975s-0.344 0.619-0.719 1.381c-0.381 0.762-0.756 1.438-0.837 1.5-0.125 0.1-0.256 0.119-0.762 0.119-0.338 0-0.681-0.025-0.762-0.056-0.194-0.075-0.256-0.306-0.131-0.488 0.081-0.131 0.137-0.144 0.688-0.144h0.594l0.844-1.719c0.462-0.944 0.887-1.762 0.938-1.813 0.125-0.119 0.3-0.119 0.425 0 0.050 0.050 0.387 1.006 0.756 2.125 0.363 1.119 0.688 2.019 0.719 2s0.337-0.425 0.688-0.906c0.869-1.2 0.906-1.2 1.488-0.162l0.262 0.475h0.988l0.294-0.769c0.163-0.419 0.337-0.85 0.387-0.963 0.1-0.219 0.306-0.3 0.475-0.188 0.063 0.044 0.325 0.569 0.587 1.169 0.256 0.6 0.488 1.112 0.512 1.144 0.025 0.025 0.35-0.906 0.719-2.063 0.369-1.162 0.712-2.175 0.762-2.256 0.106-0.162 0.344-0.181 0.481-0.031zM7.537 13.425c0.125 0.088 0.156 0.281 0.056 0.425l-0.094 0.15h-5.25l-0.094-0.15c-0.1-0.144-0.069-0.338 0.056-0.425 0.087-0.063 5.237-0.063 5.325 0zM12.037 13.425c0.125 0.088 0.156 0.281 0.056 0.425l-0.094 0.15h-1.706c-1.825 0-1.856-0.006-1.856-0.313s0.031-0.313 1.844-0.313c0.925 0 1.719 0.025 1.756 0.050zM5.088 14.975c0.125 0.125 0.125 0.363 0 0.488-0.081 0.088-0.3 0.1-1.438 0.1-1.256 0-1.344-0.006-1.462-0.125-0.069-0.069-0.125-0.169-0.125-0.219s0.056-0.15 0.125-0.219c0.119-0.119 0.206-0.125 1.462-0.125 1.138 0 1.356 0.012 1.438 0.1zM9.813 15c0.069 0.069 0.125 0.169 0.125 0.219s-0.056 0.15-0.125 0.219c-0.119 0.119-0.206 0.125-2.006 0.125-1.175 0-1.925-0.025-2-0.063-0.144-0.081-0.162-0.387-0.019-0.525 0.081-0.088 0.35-0.1 2-0.1 1.819 0 1.906 0.006 2.025 0.125zM12.063 15c0.069 0.069 0.125 0.169 0.125 0.219s-0.056 0.15-0.125 0.219c-0.106 0.106-0.206 0.125-0.762 0.125-0.688 0-0.863-0.069-0.863-0.35 0-0.256 0.219-0.338 0.887-0.338 0.531 0 0.631 0.019 0.738 0.125zM3.906 16.587c0.119 0.175 0.056 0.363-0.156 0.475-0.15 0.081-1.25 0.081-1.456 0.006-0.206-0.081-0.269-0.288-0.144-0.475 0.1-0.15 0.125-0.156 0.881-0.156s0.781 0.006 0.875 0.15zM9.181 16.525c0.125 0.15 0.056 0.431-0.119 0.519-0.119 0.056-0.675 0.081-2.156 0.081-2.194 0-2.294-0.019-2.331-0.344-0.044-0.337-0.006-0.344 2.369-0.344 1.806 0 2.181 0.012 2.237 0.087zM12.094 16.587c0.125 0.188 0.037 0.444-0.169 0.494-0.225 0.063-1.463 0.050-1.631-0.012-0.206-0.081-0.269-0.288-0.144-0.475 0.1-0.156 0.119-0.156 0.975-0.156 0.85 0 0.875 0.006 0.969 0.15zM4.487 18.075c0.094 0.094 0.094 0.381 0 0.475-0.050 0.050-0.4 0.075-1.156 0.075-1.063 0-1.081 0-1.175-0.15-0.1-0.144-0.069-0.337 0.056-0.425 0.119-0.081 2.194-0.056 2.275 0.025zM12.037 18.050c0.125 0.087 0.156 0.281 0.056 0.425l-0.094 0.15h-3.406c-3.3 0-3.406-0.006-3.469-0.119-0.081-0.163-0.081-0.337 0.013-0.431 0.056-0.056 0.906-0.075 3.456-0.075 1.856 0 3.406 0.025 3.444 0.050z"></path>
<path d="M2.438 6.094v1.219h9.375v-2.438h-9.375v1.219z"></path>
<path d="M19.688 8.219v2.412l1.969-0.037 0.019-2.394 0.012-2.388h-2v2.406z"></path>
<path d="M23 8.75v1.875h2v-3.75h-2v1.875z"></path>
<path d="M26.325 9.606l0.019 0.988 1.969 0.037v-2.006h-2.006l0.019 0.981z"></path>
<path d="M16.337 8.831c-0.012 0.044-0.019 0.463-0.012 0.925l0.019 0.838 1.969 0.037v-1.881h-0.969c-0.744 0-0.981 0.019-1.006 0.081z"></path>
<path d="M0.313 21.262c0.006 1.344 0.1 1.613 0.656 1.869 0.238 0.113 0.819 0.119 15.031 0.119s14.794-0.006 15.031-0.119c0.556-0.256 0.65-0.525 0.656-1.869v-1.012h-31.375v1.012z"></path>
<path d="M10.75 25.313v1.375h10.5v-2.75h-2.988l-0.163 0.337c-0.2 0.413-0.619 0.806-1.087 1.025-0.313 0.15-0.431 0.169-1.012 0.169s-0.7-0.019-1.012-0.169c-0.463-0.212-0.869-0.594-1.088-1.019l-0.181-0.344h-2.969v1.375z"></path>
<path d="M9.169 27.462c-0.431 0.156-0.7 0.387-1.188 1.025-0.263 0.344-0.481 0.644-0.481 0.663s3.825 0.038 8.5 0.038c4.675 0 8.5-0.019 8.5-0.050-0.006-0.025-0.238-0.337-0.519-0.694-0.394-0.5-0.594-0.694-0.856-0.844l-0.344-0.194-6.688-0.012c-5.512-0.012-6.731 0-6.925 0.069z"></path>
</symbol>
<symbol id="icon-employees" viewBox="0 0 36 32">
<path d="M16 0h4c1.106 0 2 0.894 2 2v4c0 1.106-0.894 2-2 2h-4c-1.106 0-2-0.894-2-2v-4c0-1.106 0.894-2 2-2zM4 4h8v3c0 1.656 1.344 3 3 3h6c1.656 0 3-1.344 3-3v-3h8c2.206 0 4 1.794 4 4v20c0 2.206-1.794 4-4 4h-28c-2.206 0-4-1.794-4-4v-20c0-2.206 1.794-4 4-4zM11 27.331c0 0.369 0.3 0.669 0.669 0.669h12.662c0.369 0 0.669-0.3 0.669-0.669 0-1.844-1.494-3.331-3.331-3.331h-7.338c-1.844 0-3.331 1.494-3.331 3.331zM18 22c2.206 0 4-1.794 4-4s-1.794-4-4-4-4 1.794-4 4 1.794 4 4 4z"></path>
</symbol>
<symbol id="icon-home" viewBox="0 0 36 32">
<path d="M35.987 15.969c0 1.125-0.938 2.006-2 2.006h-2l0.044 10.012c0 0.169-0.013 0.337-0.031 0.506v1.006c0 1.381-1.119 2.5-2.5 2.5h-1c-0.069 0-0.137 0-0.206-0.006-0.087 0.006-0.175 0.006-0.262 0.006h-3.531c-1.381 0-2.5-1.119-2.5-2.5v-5.5c0-1.106-0.894-2-2-2h-4c-1.106 0-2 0.894-2 2v5.5c0 1.381-1.119 2.5-2.5 2.5h-3.494c-0.094 0-0.188-0.006-0.281-0.012-0.075 0.006-0.15 0.012-0.225 0.012h-1c-1.381 0-2.5-1.119-2.5-2.5v-7c0-0.056 0-0.119 0.006-0.175v-4.35h-2.006c-1.125 0-2-0.875-2-2.006 0-0.563 0.188-1.063 0.625-1.5l16.025-13.969c0.438-0.438 0.938-0.5 1.375-0.5s0.938 0.125 1.313 0.438l15.962 14.031c0.5 0.438 0.75 0.938 0.688 1.5z"></path>
</symbol>
<symbol id="icon-orders" viewBox="0 0 36 32">
<path d="M0 1.5c0-0.831 0.669-1.5 1.5-1.5h2.844c1.375 0 2.594 0.8 3.162 2h25.688c1.644 0 2.844 1.563 2.413 3.15l-2.563 9.519c-0.531 1.963-2.313 3.331-4.344 3.331h-18.031l0.338 1.781c0.137 0.706 0.756 1.219 1.475 1.219h18.019c0.831 0 1.5 0.669 1.5 1.5s-0.669 1.5-1.5 1.5h-18.019c-2.162 0-4.019-1.538-4.419-3.656l-3.225-16.938c-0.044-0.237-0.25-0.406-0.494-0.406h-2.844c-0.831 0-1.5-0.669-1.5-1.5zM8 29c0-1.657 1.343-3 3-3s3 1.343 3 3v0c0 1.657-1.343 3-3 3s-3-1.343-3-3v0zM29 26c1.657 0 3 1.343 3 3s-1.343 3-3 3v0c-1.657 0-3-1.343-3-3s1.343-3 3-3v0z"></path>
</symbol>
<symbol id="icon-products" viewBox="0 0 36 32">
<path d="M1.5 0c-0.831 0-1.5 0.669-1.5 1.5s0.669 1.5 1.5 1.5h2.844c0.237 0 0.444 0.169 0.494 0.406l3.225 16.938c0.406 2.125 2.262 3.656 4.419 3.656h18.019c0.831 0 1.5-0.669 1.5-1.5s-0.669-1.5-1.5-1.5h-18.019c-0.719 0-1.338-0.512-1.475-1.219l-0.338-1.781h18.031c2.038 0 3.819-1.363 4.344-3.331l2.563-9.519c0.431-1.587-0.769-3.15-2.413-3.15h-10.694v6.381l1.438-1.438c0.587-0.588 1.538-0.588 2.119 0s0.587 1.537 0 2.119l-4 4c-0.587 0.588-1.538 0.588-2.119 0l-4-4c-0.588-0.588-0.588-1.537 0-2.119s1.538-0.588 2.119 0l1.438 1.438v-6.381h-11.988c-0.569-1.2-1.781-2-3.162-2h-2.844zM11 32c1.657 0 3-1.343 3-3s-1.343-3-3-3v0c-1.657 0-3 1.343-3 3s1.343 3 3 3v0zM32 29c0-1.657-1.343-3-3-3s-3 1.343-3 3v0c0 1.657 1.343 3 3 3s3-1.343 3-3v0z"></path>
</symbol>
<symbol id="icon-search" viewBox="0 0 32 32">
<path d="M26 13c0 2.869-0.931 5.519-2.5 7.669l7.913 7.919c0.781 0.781 0.781 2.050 0 2.831s-2.050 0.781-2.831 0l-7.912-7.919c-2.15 1.575-4.8 2.5-7.669 2.5-7.181 0-13-5.819-13-13s5.819-13 13-13 13 5.819 13 13zM13 22c4.969 0 9-4.031 9-9s-4.031-9-9-9-9 4.031-9 9 4.031 9 9 9z"></path>
</symbol>
<symbol id="icon-suppliers" viewBox="0 0 32 32">
<path d="M0.719 0.931c-0.3 0.138-0.494 0.338-0.625 0.644-0.081 0.2-0.094 0.725-0.094 3.831v3.594h32v-7.162l-0.156-0.319c-0.1-0.2-0.256-0.381-0.419-0.494l-0.256-0.181-15.1-0.012c-14.575-0.019-15.106-0.012-15.35 0.1z"></path>
<path d="M1.594 10.644c-0.019 0.044-0.025 4.475-0.019 9.856l0.019 9.781 0.144 0.262c0.075 0.15 0.256 0.344 0.4 0.438l0.263 0.175 13.438 0.019c9.419 0.012 13.513 0 13.675-0.050 0.313-0.087 0.606-0.35 0.744-0.656 0.113-0.238 0.119-0.681 0.119-10.081v-9.825h-14.375c-11.512 0-14.387 0.019-14.406 0.081zM21.288 14.556c0.319 0.144 0.563 0.45 0.644 0.819 0.087 0.363 0.087 2.512 0 2.875-0.081 0.369-0.325 0.675-0.644 0.819-0.244 0.113-0.506 0.119-5.313 0.119-5.031 0-5.063 0-5.338-0.131-0.162-0.081-0.338-0.238-0.438-0.387l-0.169-0.25-0.019-1.475c-0.012-0.9 0.006-1.563 0.044-1.694 0.075-0.262 0.394-0.606 0.662-0.725 0.15-0.069 1.206-0.081 5.25-0.081 4.813-0.006 5.075 0 5.319 0.113z"></path>
</symbol>
<symbol id="icon-rotate-right" viewBox="0 0 32 32">
<path d="M29.913 2.906c-0.344 0.119-0.669 0.4-0.831 0.725-0.137 0.269-0.137 0.325-0.144 2.175v1.894l-0.369-0.338c-2.462-2.281-5.613-3.775-9.1-4.313-1.063-0.163-3.344-0.194-4.406-0.063-5.544 0.7-10.294 3.906-12.95 8.731-0.688 1.256-1.194 2.531-1.556 3.944-1.025 4.019-0.594 8.119 1.231 11.806 0.706 1.431 0.975 1.681 1.812 1.688 0.381 0 0.481-0.025 0.75-0.188 0.438-0.275 0.669-0.681 0.7-1.212 0.025-0.406 0.013-0.431-0.425-1.306-0.85-1.725-1.244-2.956-1.506-4.731-0.125-0.85-0.112-2.962 0.025-3.813 0.513-3.144 1.825-5.744 3.981-7.906 2.025-2.025 4.569-3.369 7.437-3.919 1.156-0.219 3.031-0.269 4.256-0.112 2.394 0.3 4.631 1.206 6.606 2.669 0.538 0.394 2.075 1.825 2.075 1.925 0 0.019-1.188 0.037-2.644 0.037l-2.644-0.006-0.306 0.188c-0.575 0.356-0.863 1.125-0.656 1.75 0.1 0.3 0.45 0.688 0.775 0.863 0.244 0.131 0.356 0.137 2.6 0.175 1.288 0.025 3.219 0.044 4.288 0.050l1.938 0.006 0.331-0.162c0.369-0.188 0.656-0.531 0.756-0.912 0.044-0.162 0.050-1.575 0.019-4.406l-0.056-4.175-0.156-0.313c-0.344-0.681-1.131-1-1.831-0.75z"></path>
</symbol>
<symbol id="icon-info" viewBox="0 0 32 32">
<path d="M4.256 2.1c-1.056 0.281-1.881 1.125-2.163 2.194-0.075 0.275-0.094 0.75-0.094 2.031v1.675h28v-1.675c0-1.3-0.019-1.756-0.094-2.044-0.281-1.075-1.119-1.906-2.2-2.188-0.531-0.137-22.931-0.131-23.45 0.006zM7.537 4.162c0.331 0.244 0.431 0.444 0.431 0.838s-0.1 0.594-0.431 0.838c-0.144 0.112-0.281 0.138-0.9 0.15-0.856 0.025-1.119-0.037-1.381-0.331-0.325-0.369-0.338-0.919-0.025-1.288 0.275-0.325 0.456-0.369 1.344-0.356 0.688 0.019 0.813 0.037 0.963 0.15z"></path>
<path d="M2 18.675c0 7.588 0.013 8.719 0.094 9.044 0.281 1.075 1.119 1.906 2.2 2.188 0.537 0.144 22.875 0.144 23.413 0 1.081-0.281 1.919-1.113 2.2-2.188 0.081-0.325 0.094-1.456 0.094-9.044v-8.675h-28v8.675zM9.394 15.088c0.65 0.269 0.8 1.094 0.294 1.6-0.412 0.413-0.975 0.419-1.381 0.006-0.775-0.769 0.081-2.031 1.088-1.606zM23.538 15.162c0.331 0.244 0.431 0.444 0.431 0.838s-0.1 0.594-0.431 0.837c-0.169 0.131-0.244 0.131-4.4 0.15-2.856 0.012-4.306 0-4.463-0.050-0.631-0.181-0.875-1.050-0.444-1.569 0.319-0.381 0.156-0.369 4.844-0.35 4.225 0.012 4.294 0.012 4.462 0.144zM9.55 18.169c0.088 0.063 0.219 0.2 0.287 0.294 0.131 0.169 0.131 0.238 0.131 3.038s0 2.869-0.131 3.038c-0.244 0.331-0.444 0.431-0.838 0.431s-0.594-0.1-0.838-0.431c-0.125-0.169-0.131-0.256-0.15-2.869-0.013-1.488 0-2.788 0.019-2.9 0.044-0.25 0.306-0.569 0.563-0.681 0.25-0.119 0.75-0.075 0.956 0.081zM23.538 19.163c0.331 0.244 0.431 0.444 0.431 0.837s-0.1 0.594-0.431 0.837c-0.169 0.131-0.244 0.131-4.4 0.15-2.856 0.012-4.306 0-4.463-0.050-0.631-0.181-0.875-1.050-0.444-1.569 0.319-0.381 0.156-0.369 4.844-0.35 4.225 0.012 4.294 0.012 4.462 0.144zM23.538 23.163c0.331 0.244 0.431 0.444 0.431 0.837s-0.1 0.594-0.431 0.837c-0.169 0.131-0.244 0.131-4.4 0.15-2.856 0.012-4.306 0-4.463-0.050-0.631-0.181-0.875-1.050-0.444-1.569 0.319-0.381 0.156-0.369 4.844-0.35 4.225 0.012 4.294 0.012 4.462 0.144z"></path>
</symbol>
</defs>
</svg>
